<?xml version="1.0" encoding="UTF-8"?><svg xmlns="http://www.w3.org/2000/svg" viewBox="0 0 240.94 240.94"><defs><style>.cls-1{fill:#b3dac5;}.cls-2{fill:#00853f;}</style></defs><g id="Background_Circles"><circle class="cls-1" cx="120.47" cy="120.47" r="84.6"/></g><g id="Illustrations"><circle class="cls-2" cx="131.88" cy="103.75" r="6.1"/><path class="cls-2" d="M131.88,112.86c-5.02,0-9.1-4.08-9.1-9.1s4.08-9.1,9.1-9.1,9.1,4.08,9.1,9.1-4.08,9.1-9.1,9.1ZM131.88,100.65c-1.71,0-3.1,1.39-3.1,3.1s1.39,3.1,3.1,3.1,3.1-1.39,3.1-3.1-1.39-3.1-3.1-3.1Z"/><path class="cls-2" d="M131.88,188.46c-46.71,0-84.71-38-84.71-84.71S85.17,19.04,131.88,19.04s84.71,38,84.71,84.71-38,84.71-84.71,84.71ZM131.88,25.04c-43.4,0-78.71,35.31-78.71,78.71s35.31,78.71,78.71,78.71,78.71-35.31,78.71-78.71S175.28,25.04,131.88,25.04Z"/><path class="cls-2" d="M131.88,106.75c-1.66,0-3-1.34-3-3V37.81c0-1.66,1.34-3,3-3s3,1.34,3,3v65.94c0,1.66-1.34,3-3,3Z"/><path class="cls-2" d="M171.02,106.75h-39.14c-1.66,0-3-1.34-3-3s1.34-3,3-3h39.14c1.66,0,3,1.34,3,3s-1.34,3-3,3Z"/><path class="cls-2" d="M89.5,147.13c-.26,0-.51-.1-.71-.29-.39-.39-.39-1.02,0-1.41l42.38-42.38c.39-.39,1.02-.39,1.41,0s.39,1.02,0,1.41l-42.38,42.38c-.2.2-.45.29-.71.29Z"/></g></svg>