<?xml version="1.0" encoding="UTF-8"?><svg xmlns="http://www.w3.org/2000/svg" viewBox="0 0 240.94 240.94"><defs><style>.cls-1{fill:#DED0E7;}.cls-2{fill:#7b439a;}</style></defs><g id="Background_Circles"><circle class="cls-1" cx="120.47" cy="120.47" r="84.6"/></g><g id="Illustrations"><path class="cls-2" d="M158.09,117.31c-.11,0-.22,0-.33-.02-1.59-.18-2.73-1.61-2.56-3.2,1.87-16.75-8.89-28.76-17.05-30.66-1.56-.36-2.53-1.92-2.17-3.48.36-1.56,1.93-2.55,3.48-2.17,10.47,2.44,23.78,16.63,21.5,36.95-.16,1.48-1.42,2.58-2.88,2.58Z"/><path class="cls-2" d="M121.11,228.03h-4.65c-2.79,0-5.05-2.26-5.05-5.05v-.68c0-.56.45-1.01,1.01-1.01h12.73c.56,0,1.01.45,1.01,1.01v.68c0,2.79-2.26,5.05-5.05,5.05Z"/><path class="cls-2" d="M137.02,190.97h-36.45c-.8,0-1.56-.32-2.12-.88-.56-.56-.88-1.33-.88-2.12v-6.08c0-7.15-6.79-15.43-12.79-22.73-1.14-1.38-2.19-2.66-3.13-3.86-3.9-4.96-7.26-9.73-10.27-14.59-2.75-4.45-4.86-9.25-6.28-14.26-1.42-5-2.15-10.22-2.15-15.5,0-31.06,25.05-56.32,55.85-56.32s55.85,25.27,55.85,56.32c0,5.29-.72,10.51-2.14,15.5-1.41,4.99-3.52,9.79-6.28,14.25-3.01,4.86-6.37,9.63-10.28,14.59-.91,1.16-1.91,2.37-2.95,3.64l-.17.21c-6.01,7.32-12.81,15.6-12.81,22.75v6.07c0,.8-.31,1.56-.87,2.12-.56.56-1.33.88-2.12.88ZM103.57,184.97h30.44v-3.07c0-9.3,7.52-18.46,14.16-26.54l.18-.22c1.02-1.24,1.99-2.43,2.88-3.55,3.76-4.78,6.99-9.37,9.88-14.03,2.46-3.99,4.35-8.28,5.61-12.74,1.27-4.46,1.91-9.13,1.91-13.87,0-27.75-22.36-50.32-49.85-50.32s-49.85,22.58-49.85,50.32c0,4.73.65,9.39,1.92,13.86,1.27,4.48,3.16,8.77,5.61,12.74,2.89,4.67,6.12,9.26,9.88,14.03.92,1.17,1.94,2.41,3.01,3.71,6.69,8.14,14.21,17.31,14.21,26.6v3.08Z"/><path class="cls-2" d="M136.42,205.34h-35.26c-1.66,0-3-1.34-3-3s1.34-3,3-3h35.26c1.66,0,3,1.34,3,3s-1.34,3-3,3Z"/><path class="cls-2" d="M129.98,216.24h-22.37c-1.66,0-3-1.34-3-3s1.34-3,3-3h22.37c1.66,0,3,1.34,3,3s-1.34,3-3,3Z"/><path class="cls-2" d="M190.15,91.75c-1.49,0-2.81-.95-3.28-2.37-.6-1.81.38-3.77,2.19-4.37l20.09-6.67c.88-.29,1.81-.22,2.64.19.83.41,1.44,1.12,1.73,2,.6,1.81-.38,3.77-2.19,4.37l-20.09,6.67c-.35.12-.72.18-1.09.18ZM189.98,87.78h0,0Z"/><path class="cls-2" d="M174.76,65.48c-.97,0-1.9-.41-2.56-1.13-.62-.68-.94-1.57-.9-2.49s.44-1.77,1.13-2.4l15.64-14.26c.68-.62,1.56-.95,2.49-.9.92.04,1.77.44,2.4,1.12,1.28,1.41,1.18,3.6-.22,4.88l-15.64,14.26c-.64.58-1.47.9-2.33.9Z"/><path class="cls-2" d="M150.02,47.74c-.48,0-.95-.1-1.39-.29-.84-.37-1.49-1.04-1.83-1.91s-.32-1.8.05-2.65l8.49-19.39c.37-.85,1.05-1.5,1.91-1.83.86-.34,1.8-.32,2.65.05,1.75.77,2.54,2.81,1.78,4.55l-8.49,19.39c-.55,1.26-1.79,2.07-3.17,2.07Z"/><path class="cls-2" d="M120.2,41.6c-1.89,0-3.45-1.54-3.46-3.44l-.13-21.16c0-.92.35-1.79,1-2.45.65-.66,1.52-1.02,2.44-1.03,1.92,0,3.47,1.54,3.48,3.44l.13,21.16c.01,1.91-1.53,3.47-3.44,3.48h-.02ZM120.74,38.14h0,0Z"/><path class="cls-2" d="M90.46,48.11c-1.35,0-2.59-.8-3.15-2.03l-8.73-19.28c-.38-.84-.41-1.78-.09-2.65.33-.86.97-1.55,1.81-1.93.84-.38,1.78-.41,2.64-.09.86.33,1.55.97,1.93,1.81l8.73,19.28c.38.84.41,1.78.09,2.65-.33.86-.97,1.55-1.81,1.93-.45.2-.93.31-1.42.31ZM90.95,44.43h.01-.01Z"/><path class="cls-2" d="M65.94,66.16c-.85,0-1.66-.31-2.3-.87l-15.82-14.06c-1.42-1.27-1.55-3.46-.29-4.88.61-.69,1.46-1.1,2.38-1.15.92-.05,1.81.25,2.5.87l15.82,14.06c1.42,1.27,1.55,3.46.29,4.88-.66.74-1.6,1.16-2.58,1.16ZM66.3,62.3h0,0Z"/><path class="cls-2" d="M50.88,92.62c-.36,0-.71-.06-1.05-.16l-20.16-6.41c-1.82-.58-2.83-2.53-2.25-4.34.28-.88.89-1.6,1.71-2.02s1.76-.5,2.64-.22l20.17,6.41c.88.28,1.6.89,2.02,1.71.42.82.5,1.76.22,2.64-.46,1.44-1.78,2.41-3.29,2.41ZM51.04,88.65h0,0Z"/></g></svg>