<?xml version="1.0" encoding="UTF-8"?><svg xmlns="http://www.w3.org/2000/svg" viewBox="0 0 240.94 240.94"><defs><style>.cls-1{fill:#C0E1CF;}.cls-2{fill:#00853f;}</style></defs><g id="Background_Circles"><circle class="cls-1" cx="120.47" cy="120.47" r="84.6"/></g><g id="Illustrations"><path class="cls-2" d="M170.19,204.36c-.24,0-.49-.03-.72-.09-.79-.2-1.47-.71-1.87-1.41l-41.7-72.23c-.83-1.43-.34-3.27,1.1-4.1l72.23-41.7c.71-.41,1.54-.51,2.33-.29.78.22,1.44.76,1.82,1.48,10.65,20.07,13.28,43.21,7.4,65.15s-19.72,40.67-38.98,52.72c-.48.3-1.03.46-1.59.46ZM132.59,130.24l38.62,66.89c16.61-11.27,28.55-28.02,33.76-47.49s3.26-39.95-5.5-58.01l-66.89,38.62Z"/><path class="cls-2" d="M201.87,60.12c-16.83-26.9-46.81-42.68-78.51-41.35l6.46,82.95,72.05-41.6Z"/><path class="cls-2" d="M129.81,104.72c-.48,0-.96-.12-1.4-.35-.91-.48-1.51-1.39-1.59-2.42l-6.46-82.95c-.06-.81.21-1.61.75-2.22s1.3-.97,2.12-1.01c32.72-1.38,63.82,15,81.18,42.75.43.69.56,1.53.37,2.32s-.71,1.47-1.41,1.87l-72.05,41.6c-.46.27-.98.4-1.5.4ZM126.59,21.7l5.85,75.05,65.19-37.64c-15.84-23.35-42.37-37.41-70.57-37.41-.15,0-.31,0-.46,0Z"/><path class="cls-2" d="M111.34,224.29c-7.9,0-15.84-1.1-23.62-3.34-21.33-6.12-39.2-20.07-50.31-39.27-14.57-24.28-15.31-54.56-1.97-80.96,13.32-26.37,38.08-43.7,66.22-46.38.8-.07,1.6.17,2.21.69.62.52,1,1.26,1.06,2.06l6.36,81.49c1.84,3.96,19.06,33.55,29.46,51.41,3.31,5.69,6.23,10.71,8.33,14.33q4.21,7.27,3.36,8.81c-.28.51-.71.93-1.22,1.21-12.46,6.6-26.1,9.96-39.86,9.96ZM99.19,60.67c-24.82,3.39-46.49,19.19-58.4,42.76-12.41,24.55-11.74,52.67,1.79,75.21,20.97,36.23,65.75,49.81,103.08,31.78-2.05-3.56-5.99-10.34-10.1-17.4-25.44-43.71-29.85-51.61-30.16-53.14-.03-.12-.04-.25-.05-.38l-6.15-78.84Z"/><path class="cls-2" d="M208.87,112.68c-.2,0-.4-.02-.6-.06l-34.54-7.01c-1.62-.33-2.67-1.91-2.34-3.54.33-1.62,1.91-2.67,3.54-2.34l34.54,7.01c1.62.33,2.67,1.91,2.34,3.54-.29,1.42-1.54,2.4-2.94,2.4Z"/><path class="cls-2" d="M209.99,131.13c-.2,0-.4-.02-.6-.06l-59.01-11.97c-1.62-.33-2.67-1.91-2.34-3.54.33-1.62,1.91-2.67,3.54-2.34l59.01,11.97c1.62.33,2.67,1.91,2.34,3.54-.29,1.42-1.54,2.4-2.94,2.4Z"/><path class="cls-2" d="M204.58,149.64c-.2,0-.4-.02-.6-.06l-72.65-14.74c-1.62-.33-2.67-1.91-2.34-3.54.33-1.62,1.91-2.67,3.54-2.34l72.65,14.74c1.62.33,2.67,1.91,2.34,3.54-.29,1.42-1.54,2.4-2.94,2.4Z"/><path class="cls-2" d="M200.21,167.91c-.2,0-.4-.02-.6-.06l-56.02-11.36c-1.62-.33-2.67-1.91-2.34-3.54.33-1.62,1.9-2.67,3.54-2.34l56.02,11.36c1.62.33,2.67,1.91,2.34,3.54-.29,1.42-1.54,2.4-2.94,2.4Z"/><path class="cls-2" d="M190.21,183.9c-.2,0-.4-.02-.6-.06l-33.87-6.87c-1.62-.33-2.67-1.91-2.34-3.54.33-1.62,1.91-2.67,3.54-2.34l33.87,6.87c1.62.33,2.67,1.91,2.34,3.54-.29,1.42-1.54,2.4-2.94,2.4Z"/></g></svg>