<?xml version="1.0" encoding="UTF-8"?><svg xmlns="http://www.w3.org/2000/svg" viewBox="0 0 240.94 240.94"><defs><style>.cls-1{fill:#b3dac5;}.cls-2{fill:#00853f;}</style></defs><g id="Background_Circles"><circle class="cls-1" cx="119.6" cy="120.47" r="84.6"/></g><g id="Illustrations"><path class="cls-2" d="M28.43,217.81c-.78,0-1.55-.3-2.12-.88-.88-.88-1.13-2.22-.61-3.36l57.88-127.46c.41-.9,1.23-1.54,2.2-1.71.97-.17,1.96.14,2.66.83l69.58,69.58c.7.7,1.01,1.69.83,2.66-.18.97-.81,1.79-1.71,2.2l-127.46,57.88c-.4.18-.82.27-1.24.27ZM87.25,92.53l-52.79,116.24,116.24-52.79-31.73-31.73h0l-31.73-31.73Z"/><path class="cls-2" d="M120.47,99.09c-.46,0-.93-.11-1.37-.33-1.47-.76-2.05-2.57-1.3-4.04,16.5-32.1,20.54-59.86,10.07-69.08-3.9-3.43-12.75-6.77-19.33-3.03-5.07,2.88-10.02,11.07-6.57,17.87,2.5,4.92,8.6,7.68,14.83,6.72,1.63-.25,3.17.87,3.42,2.51.25,1.64-.87,3.17-2.51,3.42-8.76,1.36-17.44-2.73-21.1-9.93-2.32-4.56-2.41-9.93-.26-15.11,1.85-4.47,5.3-8.46,9.22-10.69,9.22-5.24,20.9-.96,26.26,3.74,12.97,11.41,9.63,40.66-8.7,76.32-.53,1.04-1.58,1.63-2.67,1.63Z"/><path class="cls-2" d="M149.67,114.68c-.4,0-.8-.08-1.19-.25-1.52-.66-2.22-2.42-1.57-3.94,4.54-10.52,11.5-19.37,20.14-25.61,16.94-12.24,43.5-17.4,53.67-5.97,4,4.49,6.3,12.69,2.68,19.05-3.43,6.03-11.83,10.08-18.89,6.5-5.28-2.68-8.28-9.02-7.29-15.41.25-1.64,1.79-2.76,3.42-2.51,1.64.25,2.76,1.79,2.51,3.42-.6,3.86,1.08,7.62,4.08,9.14,4.14,2.11,9.17-.98,10.95-4.11,2.12-3.74.64-9.19-1.95-12.1-7.15-8.03-29.78-4.64-45.68,6.85-7.87,5.68-13.97,13.46-18.14,23.13-.49,1.13-1.59,1.81-2.76,1.81Z"/><path class="cls-2" d="M169.31,116.09c-1.25,0-2.41-.79-2.84-2.03-.54-1.57.3-3.27,1.87-3.81,1.42-.49,18.06-6.45,18.23-6.51,1.56-.56,3.28.25,3.84,1.81.56,1.56-.25,3.28-1.81,3.84-.69.25-16.85,6.04-18.31,6.54-.32.11-.65.16-.97.16Z"/><path class="cls-2" d="M105.96,84.73c-.14,0-.28,0-.43-.03-1.64-.23-2.78-1.75-2.55-3.39l1.85-12.93c.23-1.64,1.76-2.78,3.39-2.55,1.64.23,2.78,1.75,2.55,3.39l-1.85,12.93c-.21,1.5-1.5,2.58-2.97,2.58Z"/><path class="cls-2" d="M183.45,46.59c-.49,0-1-.12-1.46-.38-1.45-.81-1.97-2.63-1.16-4.08l8.81-15.78c.81-1.45,2.64-1.97,4.08-1.16,1.45.81,1.97,2.63,1.16,4.08l-8.81,15.78c-.55.98-1.57,1.54-2.62,1.54Z"/><path class="cls-2" d="M178.45,68.48c-.97,0-1.92-.47-2.5-1.33-.92-1.38-.55-3.24.83-4.16l28.52-19.07c1.38-.92,3.24-.55,4.16.83.92,1.38.55,3.24-.83,4.16l-28.52,19.07c-.51.34-1.09.51-1.66.51Z"/><path class="cls-2" d="M221.5,133.08c-2.11,3.9-5.78,9-10.81,5.84-2.44-1.53-3.98-4.45-5.73-6.64-3.39-4.25-8.07-7.75-13.76-6.02-6.2,1.88-9.77,11.74-16.37,11.07-4.06-.41-7.1-4.21-10.07-6.66-2.46-2.03-4.99-3.58-8.07-4.49-3.71-1.1-5.3,4.69-1.6,5.79,7.82,2.31,11.87,11.67,20.83,11.53,3.36-.05,6.25-1.77,8.66-3.99,2.98-2.74,5.95-8.47,10.65-7.47,3.67.79,5.76,5.08,7.95,7.77,1.99,2.45,4.41,4.81,7.53,5.73,7.25,2.14,12.84-3.66,15.97-9.44,1.84-3.4-3.34-6.43-5.18-3.03h0Z"/><path class="cls-2" d="M155.77,17.79c2.29,1.43,4.91,3.13,5.51,5.95.71,3.35-1.45,5.32-4.03,7.14-3,2.12-6.39,3.9-8.47,7.06-5.12,7.78,1.76,13.22,6.27,18.85,6.94,8.66-6.52,13.16-11.2,17.56s-5.44,11.59-4.95,17.91c.3,3.82,6.3,3.86,6,0-.31-4.05-.57-8.91,2-12.37,2.19-2.95,6.28-3.83,9.03-6.23,5.79-5.06,9.57-12.75,4.54-19.66-2.75-3.78-10.36-8.36-6.07-13.53,2.9-3.51,7.71-4.89,10.62-8.48,5.97-7.35.48-15.18-6.23-19.38-3.28-2.05-6.3,3.14-3.03,5.18h0Z"/></g></svg>