<?xml version="1.0" encoding="UTF-8"?><svg xmlns="http://www.w3.org/2000/svg" viewBox="0 0 240.94 240.94"><defs><style>.cls-1{fill:#b3dac5;}.cls-2{fill:#00853f;}</style></defs><g id="Background_Circles"><circle class="cls-1" cx="119.34" cy="120.47" r="84.6"/></g><g id="Illustrations"><circle class="cls-2" cx="144.61" cy="73.09" r="25.15"/><path class="cls-2" d="M144.61,100.74c-15.25,0-27.65-12.4-27.65-27.65s12.4-27.65,27.65-27.65,27.65,12.4,27.65,27.65-12.4,27.65-27.65,27.65ZM144.61,50.44c-12.49,0-22.65,10.16-22.65,22.65s10.16,22.65,22.65,22.65,22.65-10.16,22.65-22.65-10.16-22.65-22.65-22.65Z"/><path class="cls-2" d="M145.24,153.04c-6.54,0-10.39-1.78-14.12-3.5-3.74-1.73-7.61-3.52-14.93-3.69-7.11-.17-11,1.29-15.11,2.83-4.51,1.68-9.17,3.43-17.52,2.7-6.76-.59-10.37-2.28-13.56-3.77-3.1-1.45-5.54-2.59-10.63-2.32-5.47.3-8.94,1.96-12.62,3.72-3.94,1.88-8,3.83-14.28,3.97-7.3.19-14.61-2.19-21.77-6.98-1.15-.77-1.46-2.32-.69-3.47.77-1.15,2.32-1.45,3.47-.69,6.29,4.21,12.63,6.26,18.88,6.14,5.2-.12,8.46-1.68,12.23-3.48,3.77-1.81,8.05-3.85,14.51-4.2,6.34-.34,9.59,1.18,13.03,2.79,2.94,1.38,5.99,2.81,11.87,3.32,7.22.62,10.98-.78,15.33-2.4,4.18-1.56,8.91-3.35,16.98-3.14,8.36.19,12.9,2.29,16.91,4.15,3.9,1.8,7.27,3.36,13.97,2.98,6.1-.35,9.56-1.97,13.23-3.69,4.14-1.94,8.43-3.93,16.01-3.71,6.03.19,9.48,1.65,13.12,3.18,2.85,1.2,5.8,2.45,10.51,3.27,9.58,1.66,20.02.31,31.04-4.02,1.28-.5,2.74.13,3.24,1.41.51,1.28-.13,2.74-1.41,3.24-11.88,4.67-23.23,6.11-33.72,4.29-5.27-.91-8.63-2.33-11.6-3.58-3.48-1.47-6.23-2.63-11.33-2.79-6.39-.2-9.79,1.39-13.72,3.24-3.75,1.76-8,3.76-15.07,4.16-.78.04-1.52.07-2.23.07Z"/><path class="cls-2" d="M206.64,175.89c-3.61,0-7.07-.55-10.35-1.64-3.4-1.13-5.55-2.52-7.28-3.63-1.94-1.24-3.34-2.14-5.97-2.46-3.83-.46-6.08.81-8.92,2.42-2.98,1.69-6.35,3.61-11.8,3.57-5.1-.03-7.98-1.77-10.53-3.31-2.36-1.43-4.41-2.66-8.41-2.72-3.82-.09-6.01,1.02-8.8,2.38-2.56,1.25-5.47,2.67-9.98,3.41-7.17,1.19-14.87.02-22.89-3.47-1.27-.55-1.84-2.03-1.29-3.29.55-1.27,2.02-1.84,3.29-1.29,7.11,3.1,13.86,4.15,20.07,3.12,3.79-.63,6.24-1.82,8.61-2.98,2.98-1.45,6.04-2.94,11.06-2.89,5.36.08,8.31,1.86,10.92,3.44,2.28,1.38,4.25,2.57,7.97,2.59h.09c4.06,0,6.57-1.42,9.23-2.92,3.05-1.73,6.52-3.69,11.98-3.03,3.77.45,5.96,1.86,8.08,3.22,1.65,1.06,3.35,2.16,6.16,3.09,5.76,1.92,12.25,1.84,19.29-.25,1.32-.39,2.72.36,3.11,1.69.39,1.32-.36,2.71-1.69,3.11-4.13,1.23-8.13,1.84-11.95,1.84Z"/><path class="cls-2" d="M161.36,197.59c-4.15,0-8.18-.45-12.07-1.35-5.15-1.19-8.57-2.76-11.59-4.14-3.73-1.71-6.68-3.07-11.88-3.22-5.66-.16-8.62,1.42-12.05,3.27-3.47,1.87-7.41,3.99-14.23,4.15-7.46.17-11.85-2.17-15.71-4.23-3.74-2-6.98-3.73-12.91-3.39-5.17.29-8.3,1.96-11.6,3.73-3.48,1.86-7.42,3.96-13.74,4.38-8,.53-16.18-1.83-24.3-6.99-1.17-.74-1.51-2.29-.77-3.45s2.29-1.51,3.45-.77c7.2,4.58,14.36,6.68,21.29,6.22,5.25-.34,8.39-2.02,11.71-3.8,3.64-1.95,7.41-3.96,13.68-4.31,7.33-.41,11.51,1.82,15.55,3.97,3.65,1.95,7.09,3.78,13.24,3.64,5.62-.13,8.7-1.79,11.97-3.55,3.72-2.01,7.56-4.06,14.58-3.87,6.21.19,9.9,1.88,13.81,3.68,2.94,1.35,5.98,2.74,10.63,3.82,9.44,2.18,19.88,1.43,31.04-2.24,1.31-.43,2.72.28,3.15,1.59.43,1.31-.28,2.72-1.6,3.16-7.51,2.47-14.75,3.7-21.65,3.7Z"/><path class="cls-2" d="M140.42,220.39c-4.91,0-10.09-1.12-15.48-3.35-1.28-.53-1.88-1.99-1.36-3.27.53-1.28,1.99-1.88,3.27-1.36,6.9,2.85,13.3,3.65,19.05,2.38,3.08-.68,5.3-1.79,7.44-2.86,3.06-1.53,6.24-3.11,11.08-2.81,3.83.24,6.13,1.51,8.34,2.73,1.71.94,3.47,1.91,6.27,2.65,5.29,1.38,11.14,1.05,17.4-.98,1.31-.43,2.72.29,3.15,1.6.43,1.31-.29,2.72-1.6,3.15-7.18,2.34-13.98,2.69-20.21,1.07-3.41-.89-5.54-2.07-7.42-3.11-2.05-1.13-3.53-1.95-6.25-2.12-3.5-.22-5.6.83-8.52,2.29-2.3,1.15-4.91,2.46-8.6,3.27-2.13.47-4.32.71-6.56.71Z"/><path class="cls-2" d="M177.03,59.73c-1.16,0-2.18-.74-2.54-1.83-.23-.68-.17-1.41.15-2.04.32-.64.87-1.12,1.55-1.34l9.35-3.1c.67-.23,1.4-.17,2.04.15.64.32,1.12.87,1.34,1.55.23.68.17,1.4-.15,2.04-.32.64-.87,1.12-1.55,1.34l-9.35,3.1c-.27.09-.56.14-.84.14ZM186.8,55.2h0s0,0,0,0Z"/><path class="cls-2" d="M169.87,47.5c-.75,0-1.47-.32-1.98-.87-.48-.53-.73-1.21-.7-1.93.03-.72.34-1.38.87-1.86l7.28-6.63c.53-.48,1.21-.73,1.93-.7.71.03,1.37.34,1.85.87,1,1.1.92,2.79-.17,3.79l-7.28,6.63c-.5.45-1.14.7-1.8.7ZM170.76,45.8h0s0,0,0,0ZM178.04,39.16h0s0,0,0,0ZM176.26,37.21s0,0,0,0h0Z"/><path class="cls-2" d="M158.35,39.24c-.37,0-.72-.07-1.06-.22-.67-.29-1.17-.82-1.43-1.48-.26-.67-.25-1.39.04-2.05l3.95-9.02c.29-.66.81-1.16,1.48-1.42.67-.26,1.39-.25,2.05.04,1.35.59,1.97,2.17,1.38,3.53l-3.95,9.02c-.43.97-1.39,1.6-2.45,1.6ZM159.57,37.09h0s0,0,0,0Z"/><path class="cls-2" d="M144.48,36.38c-1.47,0-2.67-1.19-2.68-2.66l-.06-9.85c0-.72.27-1.39.77-1.9.5-.51,1.17-.79,1.89-.79,1.48,0,2.68,1.19,2.69,2.66l.06,9.85c0,.72-.27,1.39-.77,1.9-.5.51-1.17.79-1.89.79h-.01ZM145.8,33.7h0,0Z"/><path class="cls-2" d="M130.64,39.42c-1.05,0-2.01-.62-2.44-1.57l-4.06-8.97c-.3-.65-.32-1.38-.07-2.05.25-.67.75-1.2,1.4-1.5.65-.29,1.38-.32,2.05-.07.67.25,1.2.75,1.5,1.4l4.06,8.97c.61,1.35,0,2.94-1.34,3.54-.35.16-.72.24-1.1.24ZM131.84,36.19h.01-.01ZM127.78,27.22h0s0,0,0,0Z"/><path class="cls-2" d="M119.23,47.82c-.65,0-1.28-.24-1.77-.67l-7.36-6.55c-1.1-.98-1.2-2.68-.22-3.78.98-1.1,2.68-1.2,3.78-.22l7.36,6.54c.53.47.85,1.13.89,1.85.04.71-.2,1.4-.67,1.94-.51.57-1.24.9-2,.9ZM120.11,44.15h0,0Z"/><path class="cls-2" d="M112.22,60.13c-.27,0-.54-.04-.81-.12l-9.39-2.99c-.68-.22-1.24-.69-1.57-1.32-.33-.64-.39-1.36-.17-2.04.21-.68.68-1.24,1.32-1.56.64-.33,1.36-.39,2.04-.17l9.39,2.99c1.41.45,2.19,1.96,1.74,3.36-.36,1.12-1.38,1.87-2.55,1.87ZM112.62,56.19h.01-.01Z"/><path class="cls-2" d="M103.38,94.16c-.41,0-.82-.1-1.2-.29-.64-.32-1.12-.87-1.34-1.55-.23-.68-.17-1.4.15-2.04.32-.64.87-1.12,1.55-1.34l9.34-3.1c1.4-.46,2.93.33,3.39,1.7.22.68.17,1.4-.15,2.04-.32.64-.87,1.12-1.55,1.34l-9.35,3.1c-.28.09-.56.14-.85.14ZM103.81,92.73h0s0,0,0,0Z"/><path class="cls-2" d="M112.62,109.92s-.08,0-.13,0c-.72-.03-1.38-.34-1.86-.87-.48-.53-.73-1.21-.69-1.93.03-.72.34-1.38.87-1.86l7.28-6.63c1.06-.96,2.83-.87,3.79.18.99,1.08.91,2.78-.18,3.78l-7.28,6.64c-.5.45-1.13.7-1.8.7ZM113.51,108.21h0s0,0,0,0ZM111.73,106.26s0,0,0,0h0Z"/><path class="cls-2" d="M127.46,120.56c-.37,0-.73-.08-1.07-.23-.65-.28-1.16-.81-1.42-1.47s-.25-1.4.04-2.05l3.95-9.02c.43-.98,1.39-1.6,2.45-1.6.37,0,.74.08,1.08.23.65.28,1.15.81,1.41,1.47.26.67.25,1.39-.04,2.05l-3.95,9.02c-.29.66-.81,1.16-1.48,1.42-.32.12-.65.18-.98.18ZM130.2,108.33s0,0,0,0h0Z"/><path class="cls-2" d="M145.37,124.25c-1.49,0-2.69-1.19-2.7-2.66l-.06-9.85c0-1.47,1.18-2.68,2.66-2.7,1.46,0,2.69,1.19,2.7,2.66l.06,9.85c0,1.47-1.18,2.68-2.66,2.7Z"/><path class="cls-2" d="M163.19,120.34c-.32,0-.64-.06-.94-.17-.67-.25-1.2-.75-1.5-1.4l-4.06-8.97c-.3-.65-.32-1.38-.07-2.05.25-.67.75-1.2,1.4-1.5,1.31-.59,2.95.03,3.54,1.33l4.06,8.97c.61,1.35,0,2.94-1.34,3.54-.35.16-.73.24-1.1.24ZM164.39,117.11h0s0,0,0,0Z"/><path class="cls-2" d="M177.89,109.51c-.66,0-1.28-.24-1.78-.68l-7.36-6.54c-1.1-.98-1.2-2.68-.22-3.78.95-1.06,2.72-1.17,3.78-.22l7.36,6.54c.53.47.85,1.13.89,1.84.04.71-.2,1.4-.67,1.94-.47.53-1.13.85-1.84.89-.05,0-.11,0-.16,0ZM169.66,101.27s0,0,0,0h0Z"/><path class="cls-2" d="M186.93,93.64c-.27,0-.55-.04-.82-.13l-9.38-2.98c-.68-.22-1.24-.69-1.57-1.32-.33-.64-.39-1.36-.17-2.04.35-1.12,1.38-1.87,2.55-1.87.27,0,.54.04.81.12l9.39,2.99c.68.22,1.24.69,1.57,1.32.33.64.39,1.36.17,2.04-.22.68-.69,1.24-1.32,1.57-.39.2-.8.3-1.22.3ZM187.32,89.7h0s0,0,0,0Z"/><path class="cls-2" d="M182.13,75.42c-.71,0-1.37-.27-1.88-.77-.51-.5-.79-1.17-.8-1.89v-.02c0-1.47,1.19-2.67,2.66-2.68l9.85-.06h.01c1.47,0,2.67,1.19,2.68,2.66,0,1.49-1.19,2.69-2.66,2.7l-9.85.06h-.02ZM182.12,71.42h0,0ZM191.97,71.36h0,0Z"/><path class="cls-2" d="M97.78,75.42c-.7,0-1.37-.27-1.88-.77-.51-.5-.79-1.17-.8-1.89v-.02c0-1.47,1.19-2.67,2.66-2.68l9.85-.06h.01c1.47,0,2.67,1.19,2.68,2.66,0,1.49-1.19,2.69-2.66,2.7l-9.85.06h-.02ZM97.78,71.42h0,0ZM107.62,71.36h0,0Z"/></g></svg>