<?xml version="1.0" encoding="UTF-8"?><svg xmlns="http://www.w3.org/2000/svg" viewBox="0 0 240.94 240.94"><defs><style>.cls-1{fill:#C0E1CF;}.cls-2{fill:#00853f;}.cls-3{fill:#00853f;}</style></defs><g id="Background_Circles"><circle class="cls-1" cx="120.47" cy="120.47" r="84.6"/></g><g id="Illustrations"><circle class="cls-2" cx="120.47" cy="117.98" r="26.71"/><path class="cls-2" d="M120.47,147.2c-16.11,0-29.21-13.1-29.21-29.21s13.1-29.21,29.21-29.21,29.21,13.1,29.21,29.21-13.1,29.21-29.21,29.21ZM120.47,93.77c-13.35,0-24.21,10.86-24.21,24.21s10.86,24.21,24.21,24.21,24.21-10.86,24.21-24.21-10.86-24.21-24.21-24.21Z"/><path class="cls-3" d="M140.3,87.74c-.55,0-1.1-.15-1.59-.45-3.82-2.38-10.08-5.22-18.24-5.22s-14.42,2.84-18.24,5.22c-.77.48-1.71.59-2.56.29-.85-.29-1.53-.96-1.84-1.81l-19.83-54.44c-.38-1.05-.15-2.22.6-3.05.75-.82,1.9-1.17,2.98-.88l19.77,5.22,17.42-11.97c1.02-.7,2.37-.7,3.4,0l17.43,11.97,19.77-5.22c1.08-.29,2.23.05,2.98.88.75.83.99,2,.6,3.05l-19.83,54.44c-.31.85-.99,1.51-1.84,1.81-.32.11-.65.16-.98.16ZM120.47,76.07c7.56,0,13.74,2.08,18.21,4.33l16.66-45.73-15.55,4.11c-.84.22-1.74.07-2.46-.43l-16.86-11.58-16.85,11.58c-.72.5-1.62.65-2.46.43l-15.55-4.11,16.66,45.73c4.47-2.25,10.65-4.33,18.21-4.33Z"/><path class="cls-3" d="M120.47,73.08c-1.66,0-3-1.34-3-3v-31.12c0-1.66,1.34-3,3-3s3,1.34,3,3v31.12c0,1.66-1.34,3-3,3Z"/><path class="cls-3" d="M130.91,74.22c-.23,0-.47-.03-.71-.08-1.61-.39-2.6-2.01-2.21-3.62l6.17-25.52c.39-1.61,2.01-2.6,3.62-2.21,1.61.39,2.6,2.01,2.21,3.62l-6.17,25.52c-.33,1.37-1.56,2.3-2.91,2.3Z"/><path class="cls-3" d="M111.06,74.22c-1.35,0-2.58-.92-2.91-2.3l-6.17-25.52c-.39-1.61.6-3.23,2.21-3.62,1.61-.39,3.23.6,3.62,2.21l6.17,25.52c.39,1.61-.6,3.23-2.21,3.62-.24.06-.47.08-.71.08Z"/><path class="cls-3" d="M120.47,231.68c-3.87,0-7-3.13-7-7v-64.28c0-3.87,3.13-7,7-7s7,3.13,7,7v64.28c0,3.87-3.13,7-7,7Z"/><path class="cls-3" d="M138.72,229.94c-.2,0-.39,0-.59,0-1.66-.01-2.99-1.36-2.98-3.02.01-1.65,1.35-2.98,3-2.98.17,0,.38,0,.57,0,8.43,0,16.62-1.31,24.35-3.91,15.8-5.3,37.78-18.81,52.74-53.05,12.7-29.07,8.66-56.93,4.27-72.89-6.02,14.95-14.65,27.19-25.74,36.49-8.25,6.92-15.49,10.42-21.87,13.52-6.58,3.19-12.25,5.94-17.79,11.71-11.9,12.4-16.46,32.7-13.55,60.31.17,1.65-1.02,3.12-2.67,3.3-1.65.18-3.12-1.02-3.3-2.67-3.1-29.46,2.01-51.36,15.19-65.09,6.29-6.55,12.71-9.66,19.51-12.96,6.37-3.09,12.95-6.28,20.63-12.72,12.22-10.25,21.27-24.43,26.91-42.15.39-1.22,1.51-2.06,2.8-2.09,1.28-.03,2.44.77,2.88,1.97,4.87,13.39,14.45,48.56-1.77,85.67-15.85,36.26-39.38,50.65-56.33,56.34-8.34,2.8-17.18,4.22-26.26,4.22Z"/><path class="cls-3" d="M155.49,207.07c-.99,0-1.95-.48-2.52-1.37-.9-1.39-.5-3.25.9-4.15,10.24-6.6,19.34-14.72,27.06-24.13,8.2-10,14.65-21.22,19.16-33.36.58-1.55,2.31-2.34,3.86-1.77,1.55.58,2.34,2.3,1.77,3.86-4.75,12.76-11.53,24.56-20.15,35.07-8.11,9.89-17.68,18.42-28.44,25.36-.5.32-1.07.48-1.62.48Z"/><path class="cls-3" d="M103.48,229.94c-8.91,0-17.58-1.39-25.77-4.14-16.63-5.58-39.72-19.7-55.27-55.27-15.91-36.41-6.51-70.9-1.73-84.04.44-1.21,1.62-2.03,2.88-1.97,1.28.03,2.41.87,2.8,2.09,5.52,17.37,14.39,31.27,26.36,41.3,7.52,6.31,13.98,9.44,20.22,12.46,6.67,3.23,12.97,6.29,19.14,12.72,12.93,13.48,17.95,34.97,14.91,63.87-.17,1.65-1.65,2.85-3.3,2.67-1.65-.17-2.84-1.65-2.67-3.3,2.85-27.06-1.62-46.94-13.27-59.09-5.42-5.66-10.99-8.35-17.43-11.47-6.26-3.04-13.36-6.48-21.46-13.26-10.83-9.08-19.28-21.05-25.19-35.64-4.29,15.66-8.17,42.88,4.23,71.26,14.66,33.56,36.2,46.79,51.68,51.98,7.74,2.59,15.95,3.87,24.4,3.82h.02c1.65,0,2.99,1.33,3,2.98.01,1.66-1.32,3.01-2.98,3.02-.19,0-.39,0-.58,0Z"/><path class="cls-3" d="M87.03,207.52c-.56,0-1.12-.15-1.62-.48-10.56-6.81-19.95-15.18-27.9-24.88-8.45-10.31-15.1-21.89-19.76-34.4-.58-1.55.21-3.28,1.77-3.86,1.55-.58,3.28.21,3.86,1.76,4.43,11.9,10.75,22.9,18.78,32.69,7.56,9.22,16.48,17.17,26.52,23.64,1.39.9,1.79,2.75.9,4.15-.57.89-1.54,1.37-2.52,1.37Z"/></g></svg>