<?xml version="1.0" encoding="UTF-8"?><svg xmlns="http://www.w3.org/2000/svg" viewBox="0 0 240.94 240.94"><defs><style>.cls-1{fill:var(--icon-bg);}.cls-2{fill:var(--icon-line);}</style></defs><g id="Background_Circles"><circle class="cls-1" cx="120.47" cy="120.47" r="84.6"/></g><g id="Illustrations"><path class="cls-2" d="M166.9,227.71c-1.38,0-2.5-1.12-2.5-2.5l.04-148.12c0-.83.41-1.6,1.1-2.07.46-.31.67-.59.68-.72.03-.37-.48-1.13-.94-1.54-.52-.47-.84-1.16-.84-1.87v-25.89l-7.38-18.63-7.77,18.66-.16,26.11c0,1.38-1.13,2.48-2.5,2.48h-50.52c-1.38,0-2.49-1.11-2.5-2.48l-.16-26.11-7.78-18.66-7.38,18.63v25.89c0,.72-.31,1.41-.86,1.88-.44.4-.95,1.16-.92,1.53,0,.14.22.41.68.72.69.46,1.1,1.24,1.1,2.07l.04,148.12c0,1.38-1.12,2.5-2.5,2.5s-2.5-1.12-2.5-2.5l-.04-146.93c-1.33-1.29-1.71-2.67-1.77-3.68-.12-2.03.95-3.72,1.77-4.71v-25.38c0-.32.06-.63.18-.92l9.82-24.79c.37-.95,1.28-1.57,2.3-1.58h.02c1.01,0,1.92.61,2.31,1.54l10.34,24.79c.12.3.19.62.19.95l.15,24.12h45.55l.15-24.12c0-.33.07-.65.19-.95l10.33-24.79c.39-.94,1.3-1.56,2.33-1.54,1.02,0,1.93.63,2.3,1.58l9.82,24.79c.12.29.18.61.18.92v25.38c.82.98,1.89,2.68,1.77,4.71-.06,1.01-.44,2.38-1.77,3.68l-.04,146.93c0,1.38-1.12,2.5-2.5,2.5Z"/><path class="cls-2" d="M135.1,142.53h-27.46c-1.38,0-2.5-1.12-2.5-2.5v-41.19c-.15-1.35-.8-9.05,3.77-14.3,2.76-3.17,6.75-4.78,11.87-4.78h1.2c5.11,0,9.09,1.6,11.84,4.77,4.57,5.25,3.93,12.96,3.77,14.31v41.19c0,1.38-1.12,2.5-2.5,2.5ZM110.15,137.53h22.46v-38.84c0-.12,0-.23.02-.35,0-.06.84-6.63-2.58-10.55-1.76-2.01-4.47-3.03-8.06-3.03h-1.2c-3.6,0-6.31,1.02-8.08,3.04-3.43,3.92-2.59,10.48-2.58,10.55.01.11.02.23.02.34v38.84Z"/><path class="cls-2" d="M107.97,194.87h-11.49c-1.38,0-2.5-1.12-2.5-2.5v-27.04c-.02-.5-.05-5.61,4.02-8.16,1.12-.71,2.4-1.11,3.8-1.21.06,0,.11,0,.17,0h.51s.07,0,.11,0c1.38.06,2.65.43,3.78,1.11,4.09,2.44,4.13,7.5,4.11,8.3v27.01c0,1.38-1.12,2.5-2.5,2.5ZM98.98,189.87h6.49v-24.54s0-.06,0-.08c0-.06.02-2.87-1.68-3.89-.4-.24-.86-.37-1.39-.4h-.35c-.53.05-1,.2-1.41.45-1.73,1.08-1.68,3.82-1.68,3.85v24.62Z"/><path class="cls-2" d="M127.35,194.87h-11.49c-1.38,0-2.5-1.12-2.5-2.5v-27.04c-.02-.5-.05-5.61,4.02-8.16,1.12-.71,2.4-1.11,3.8-1.21.06,0,.11,0,.17,0h.51s.07,0,.11,0c1.38.06,2.65.43,3.78,1.11,4.09,2.44,4.13,7.5,4.11,8.3v27.01c0,1.38-1.12,2.5-2.5,2.5ZM118.35,189.87h6.49v-24.54s0-.06,0-.08c0-.06.02-2.87-1.68-3.89-.4-.24-.86-.37-1.39-.4h-.35c-.53.05-1,.2-1.41.45-1.73,1.08-1.68,3.82-1.68,3.85v24.62Z"/><path class="cls-2" d="M146.72,194.87h-11.49c-1.38,0-2.5-1.12-2.5-2.5v-27.04c-.02-.5-.05-5.61,4.02-8.16,1.12-.71,2.4-1.11,3.8-1.21.06,0,.11,0,.17,0h.51s.07,0,.11,0c1.38.06,2.66.43,3.78,1.11,4.09,2.44,4.13,7.5,4.11,8.3v27.01c0,1.38-1.12,2.5-2.5,2.5ZM137.72,189.87h6.49v-24.54s0-.06,0-.08c0-.06.02-2.87-1.68-3.89-.4-.24-.86-.37-1.39-.4h-.35c-.53.05-1,.2-1.41.45-1.73,1.08-1.68,3.82-1.68,3.85v24.62Z"/></g></svg>