<?xml version="1.0" encoding="UTF-8"?><svg xmlns="http://www.w3.org/2000/svg" viewBox="0 0 240.94 240.94"><defs><style>.cls-1{fill:var(--icon-bg);}.cls-2{fill:var(--icon-line);}</style></defs><g id="Background_Circles"><circle class="cls-1" cx="120.47" cy="120.47" r="84.6"/></g><g id="Illustrations"><path class="cls-2" d="M190.92,184.15c-13.21,0-27.37-10.16-33.29-24.4-6.23-14.98-.98-28.66,2.23-34.83C71.29,93.23,31.49,78.78,26.95,76.69l-.11-.05c-2.51-1.17-3.68-.93-4.15-.68,0,0-.61.33-.78.91-.16.56.08,1.29.62,1.9,1.52.7,3.75,1.73,6.45,2.95,1.37.62,2.51,1.13,3.45,1.56,4.11,1.85,4.85,2.19,6.11,3.17,1.95,1.52,3.38,3.38,4.44,5.28,3.12-.5,5.92-.41,7.88-.21.6.06,1.17.3,1.64.7,1.86,1.58,3.96,3.72,5.73,6.44,7.22-.23,16.13,3.18,27.72,7.62,20.97,8.02,42.32,16.5,63.48,25.21,1.53.63,2.26,2.38,1.63,3.92-.63,1.53-2.38,2.26-3.92,1.63-21.11-8.7-42.42-17.16-63.34-25.16-9.74-3.73-17.08-6.53-22.69-7.12.32,1.03.57,2.1.75,3.23,1.83,11.59-5.68,22.57-10.84,26.77-2.87,2.33-5.39,3.1-7.5,2.3-2.3-.87-3.73-3.51-4.25-7.84-.27-2.22-.29-5.04.06-8.07-1.92,2.56-3.98,4.64-5.77,6.01-3.06,2.35-5.7,3.07-7.84,2.16-2.06-.88-3.4-3.27-3.88-6.9-.87-6.58,1.08-18.92,10-25.95,1.66-1.31,3.4-2.3,5.15-3.04-.59-.83-1.29-1.6-2.14-2.26-.66-.52-1.1-.72-4.87-2.42-.94-.43-2.08-.94-3.46-1.56-3.02-1.37-5.45-2.49-6.97-3.19-.27-.12-.52-.29-.74-.49-2.48-2.22-3.49-5.41-2.65-8.31.82-2.82,3.08-4.19,3.75-4.55,2.59-1.36,5.77-1.17,9.47.56,5.68,2.62,75.6,27.72,135.89,49.29.87.31,1.55,1.01,1.84,1.89.29.88.16,1.84-.36,2.61-.43.64-10.48,15.88-3.58,32.46,5.32,12.79,18.85,22,30.16,20.55,11.17-1.44,19.29-12.57,23.16-22.5,4.73-12.12,4.46-24.36-.66-30.46-5.87-6.99-20.77-9.75-31.17-2.83-7.52,5.01-9.89,13.38-10.56,16.75-.02.12-.05.23-.09.34-2.4,7.41-.66,15.2,4.43,19.86,3.68,3.37,8.91,4.98,13.3,4.09,7.31-1.47,12.44-9.51,14.6-15.94,2.16-6.44,2.04-12.55-.31-15.21-1.77-2.01-5.14-3-7.84-2.32-4.16,1.05-8.29,6.62-8.15,15.22.03,1.66-1.29,3.02-2.95,3.05-1.61.03-3.02-1.29-3.05-2.95-.18-10.51,5.03-19.2,12.67-21.14,4.87-1.23,10.55.48,13.81,4.16,3.84,4.34,4.41,12.43,1.5,21.1-2.8,8.33-9.29,17.94-19.1,19.92-6.3,1.27-13.4-.86-18.53-5.55-6.78-6.21-9.18-16.38-6.14-25.97.86-4.21,3.81-14.24,13.08-20.41,6.02-4.01,13.61-5.7,21.36-4.75,7.37.9,13.83,4.08,17.73,8.72,6.59,7.85,7.24,22.18,1.66,36.5-5.82,14.93-16.28,24.75-27.98,26.27-1.05.14-2.11.2-3.18.2ZM54.95,105.26c-.81.28-1.57.67-2.29,1.16-3.69,2.54-6.34,7.9-7.27,14.69-.67,4.88-.15,8.49.4,9.98,1.04-.56,3.02-2.08,5.2-5.04,1.9-2.58,6.18-9.43,4.96-17.14-.21-1.3-.56-2.52-1.01-3.65ZM39.4,98.92c-1.31.55-2.62,1.29-3.85,2.26-4.14,3.26-7.03,9.02-7.75,15.41-.39,3.49.03,5.83.4,6.89,1.11-.53,3.35-2.1,5.91-5.37,4.31-5.52,6.44-11.9,5.69-17.09-.09-.6-.21-1.32-.41-2.1ZM45.22,97.47c.25,1,.42,1.92.53,2.69.21,1.44.26,2.88.18,4.3.98-1.12,2.08-2.12,3.32-2.98.83-.58,1.69-1.05,2.57-1.45-.82-1-1.68-1.88-2.5-2.63-1.16-.07-2.57-.09-4.11.07Z"/></g></svg>